<svg height="512pt" viewBox="0 -14 512.00107 512" width="512pt" xmlns="http://www.w3.org/2000/svg"><path d="m508.242188 359.238281c-34.214844-19.628906-76.34375-30.855469-121.734376-30.035156-7.894531.140625-15.675781.648437-23.320312 1.492187-3.242188.359376-4.910156-3.75-2.359375-5.78125 15.546875-12.382812 30.453125-26.445312 44.386719-42.128906 40.203125-45.261718 66.085937-96.933594 76.984375-147.15625 1.242187-5.71875-4.214844-10.566406-9.75-8.660156-48.585938 16.746094-96.847657 48.539062-137.046875 93.800781-9.671875 10.886719-18.507813 22.144531-26.511719 33.664063-1.972656 2.839844-6.433594 1.039062-5.871094-2.375 3.449219-21.050782 5.273438-42.933594 5.273438-65.394532 0-68.820312-17.085938-132.230468-45.816407-182.898437-2.84375-5.019531-10.109374-5.019531-12.953124 0-28.730469 50.667969-45.816407 114.078125-45.816407 182.898437 0 22.460938 1.824219 44.34375 5.277344 65.394532.558594 3.410156-3.902344 5.214844-5.875 2.375-8-11.519532-16.835937-22.777344-26.507813-33.664063-40.203124-45.261719-88.460937-77.054687-137.046874-93.800781-5.535157-1.90625-10.992188 2.941406-9.753907 8.660156 10.898438 50.222656 36.785157 101.894532 76.988281 147.15625 13.933594 15.683594 28.835938 29.746094 44.382813 42.128906 2.550781 2.03125.886719 6.140626-2.355469 5.78125-7.644531-.84375-15.429687-1.351562-23.324218-1.492187-45.390626-.820313-87.515626 10.40625-121.734376 30.035156-4.90625 2.816407-5.03125 9.839844-.230468 12.828125 33.484375 20.851563 75.179687 33.589844 120.574218 34.40625 40.617188.734375 78.613282-8.1875 110.671876-24.136718 2.351562-1.167969 5.046874.753906 4.6875 3.351562l-11.648438 84.136719c-1.089844 7.867187 5.019531 14.878906 12.960938 14.878906h30.457031c7.9375 0 14.046875-7.011719 12.960937-14.878906l-11.648437-84.136719c-.359375-2.597656 2.335937-4.519531 4.6875-3.351562 32.058593 15.949218 70.054687 24.871093 110.671875 24.136718 45.390625-.816406 87.085937-13.554687 120.574218-34.40625 4.800782-2.988281 4.671876-10.011718-.234374-12.828125zm0 0" fill="#7ece5c"/><path d="m22.789062 349.566406c-6.574218 2.945313-12.929687 6.171875-19.03125 9.671875-4.90625 2.816407-5.035156 9.839844-.230468 12.828125 33.484375 20.851563 75.179687 33.589844 120.570312 34.40625 40.621094.734375 78.617188-8.1875 110.675782-24.136718 0 0-107.421876 38.824218-211.984376-32.769532zm0 0" fill="#4eb229"/><g fill="#423e4f"><path d="m186.835938 325.421875c-4.265626 0-7.726563-3.457031-7.726563-7.726563v-12.515624c0-4.269532 3.460937-7.726563 7.726563-7.726563 4.265624 0 7.726562 3.457031 7.726562 7.726563v12.515624c0 4.269532-3.460938 7.726563-7.726562 7.726563zm0 0"/><path d="m325.164062 325.421875c-4.265624 0-7.726562-3.457031-7.726562-7.726563v-12.515624c0-4.269532 3.460938-7.726563 7.726562-7.726563 4.269532 0 7.726563 3.457031 7.726563 7.726563v12.515624c0 4.269532-3.457031 7.726563-7.726563 7.726563zm0 0"/><path d="m256 332.105469c-8.882812 0-17.222656-3.71875-22.886719-10.195313-2.808593-3.210937-2.480469-8.09375.730469-10.902344 3.214844-2.808593 8.09375-2.480468 10.902344.734376 2.730468 3.121093 6.832031 4.910156 11.253906 4.910156 4.425781 0 8.527344-1.792969 11.253906-4.910156 2.808594-3.214844 7.691406-3.542969 10.902344-.734376 3.214844 2.808594 3.542969 7.691407.734375 10.902344-5.664063 6.476563-14.007813 10.195313-22.890625 10.195313zm0 0"/></g><path d="m106.785156 282.78125c13.933594 15.6875 28.839844 29.746094 44.386719 42.128906 0 0-93.960937-98.761718-87.238281-188.246094-8.09375-3.648437-16.234375-6.886718-24.382813-9.695312-5.53125-1.90625-10.992187 2.9375-9.75 8.660156 10.898438 50.222656 36.78125 101.894532 76.984375 147.152344zm0 0" fill="#4eb229"/></svg>